<svg width="142" height="34" viewBox="0 0 142 34" fill="none" xmlns="http://www.w3.org/2000/svg">
<path d="M0 6.81818V33H3.75852V14.0412H4.00142L11.723 32.9616H14.8423L22.5639 14.054H22.8068V33H26.5653V6.81818H21.7713L13.4361 27.1705H13.1293L4.79403 6.81818H0Z" fill="black" fill-opacity="0.6"/>
<path d="M40.4648 33.3963C44.7475 33.3963 47.7773 31.2869 48.6467 28.0909L45.0288 27.4389C44.3384 29.2926 42.6765 30.2386 40.5032 30.2386C37.2305 30.2386 35.0316 28.1165 34.9293 24.3324H48.8896V22.9773C48.8896 15.8821 44.6452 13.108 40.1964 13.108C34.7248 13.108 31.1197 17.2756 31.1197 23.3097C31.1197 29.4077 34.6737 33.3963 40.4648 33.3963ZM34.9421 21.4688C35.0955 18.6818 37.1154 16.2656 40.2219 16.2656C43.1879 16.2656 45.131 18.4645 45.1438 21.4688H34.9421Z" fill="black" fill-opacity="0.6"/>
<path d="M67.8452 18.1577C67.0526 15.1023 64.6619 13.108 60.4176 13.108C55.9815 13.108 52.8367 15.4474 52.8367 18.9247C52.8367 21.7116 54.5241 23.5653 58.206 24.3835L61.5298 25.1122C63.4219 25.5341 64.304 26.3778 64.304 27.6051C64.304 29.1264 62.6804 30.3153 60.1747 30.3153C57.8864 30.3153 56.4162 29.331 55.956 27.4006L52.2614 27.9631C52.9006 31.4403 55.7898 33.3963 60.2003 33.3963C64.9432 33.3963 68.2287 30.8778 68.2287 27.3239C68.2287 24.5497 66.4645 22.8366 62.8594 22.0057L59.7401 21.2898C57.5795 20.7784 56.6463 20.0497 56.6591 18.7202C56.6463 17.2116 58.2827 16.1378 60.456 16.1378C62.8338 16.1378 63.9332 17.4545 64.3807 18.7713L67.8452 18.1577Z" fill="black" fill-opacity="0.6"/>
<path d="M81.5977 13.3636H77.5707V8.65909H73.7482V13.3636H70.8718V16.4318H73.7482V28.027C73.7354 31.5938 76.4585 33.3196 79.4755 33.2557C80.69 33.2429 81.5082 33.0128 81.9556 32.8466L81.2653 29.6889C81.0096 29.7401 80.5366 29.8551 79.9229 29.8551C78.6829 29.8551 77.5707 29.446 77.5707 27.2344V16.4318H81.5977V13.3636Z" fill="black" fill-opacity="0.6"/>
<path d="M93.8864 33.3963C99.4219 33.3963 103.04 29.3438 103.04 23.2713C103.04 17.1605 99.4219 13.108 93.8864 13.108C88.3509 13.108 84.733 17.1605 84.733 23.2713C84.733 29.3438 88.3509 33.3963 93.8864 33.3963ZM93.8991 30.1875C90.2812 30.1875 88.5938 27.0298 88.5938 23.2585C88.5938 19.5 90.2812 16.304 93.8991 16.304C97.4915 16.304 99.179 19.5 99.179 23.2585C99.179 27.0298 97.4915 30.1875 93.8991 30.1875Z" fill="black" fill-opacity="0.6"/>
<path d="M107.18 9H108.237V5.59091H110.146C110.223 5.59091 110.295 5.59091 110.368 5.58665L112.209 9H113.436L111.463 5.39489C112.575 5.01562 113.095 4.10795 113.095 2.94886C113.095 1.40625 112.175 0.272727 110.129 0.272727H107.18V9ZM108.237 4.63636V1.21023H110.095C111.51 1.21023 112.055 1.90057 112.055 2.94886C112.055 3.99716 111.51 4.63636 110.112 4.63636H108.237Z" fill="black" fill-opacity="0.6"/>
<path d="M118.845 6.32386C118.845 7.55114 117.907 8.11364 117.157 8.11364C116.322 8.11364 115.725 7.5 115.725 6.54545V2.45455H114.72V6.61364C114.72 8.28409 115.606 9.08523 116.833 9.08523C117.822 9.08523 118.47 8.55682 118.777 7.89205H118.845V9H119.85V2.45455H118.845V6.32386Z" fill="black" fill-opacity="0.6"/>
<path d="M126.329 3.92045C126.013 2.99148 125.306 2.36932 124.011 2.36932C122.63 2.36932 121.607 3.15341 121.607 4.26136C121.607 5.16477 122.144 5.76989 123.346 6.05114L124.437 6.30682C125.097 6.46023 125.408 6.77557 125.408 7.22727C125.408 7.78977 124.812 8.25 123.874 8.25C123.052 8.25 122.536 7.89631 122.357 7.19318L121.403 7.43182C121.637 8.54403 122.553 9.13636 123.891 9.13636C125.413 9.13636 126.448 8.3054 126.448 7.17614C126.448 6.2642 125.877 5.68892 124.71 5.40341L123.738 5.16477C122.962 4.97301 122.613 4.71307 122.613 4.21023C122.613 3.64773 123.21 3.23864 124.011 3.23864C124.888 3.23864 125.251 3.72443 125.425 4.17614L126.329 3.92045Z" fill="black" fill-opacity="0.6"/>
<path d="M132.598 3.92045C132.283 2.99148 131.576 2.36932 130.28 2.36932C128.9 2.36932 127.877 3.15341 127.877 4.26136C127.877 5.16477 128.414 5.76989 129.615 6.05114L130.706 6.30682C131.367 6.46023 131.678 6.77557 131.678 7.22727C131.678 7.78977 131.081 8.25 130.144 8.25C129.321 8.25 128.806 7.89631 128.627 7.19318L127.672 7.43182C127.907 8.54403 128.823 9.13636 130.161 9.13636C131.682 9.13636 132.718 8.3054 132.718 7.17614C132.718 6.2642 132.147 5.68892 130.979 5.40341L130.007 5.16477C129.232 4.97301 128.882 4.71307 128.882 4.21023C128.882 3.64773 129.479 3.23864 130.28 3.23864C131.158 3.23864 131.52 3.72443 131.695 4.17614L132.598 3.92045Z" fill="black" fill-opacity="0.6"/>
<path d="M134.232 9H135.237V2.45455H134.232V9ZM134.743 1.36364C135.135 1.36364 135.459 1.05682 135.459 0.681818C135.459 0.306818 135.135 0 134.743 0C134.351 0 134.027 0.306818 134.027 0.681818C134.027 1.05682 134.351 1.36364 134.743 1.36364Z" fill="black" fill-opacity="0.6"/>
<path d="M139.005 9.15341C140.147 9.15341 140.744 8.53977 140.949 8.11364H141V9H142.005V4.6875C142.005 2.60795 140.42 2.36932 139.585 2.36932C138.596 2.36932 137.471 2.71023 136.96 3.90341L137.914 4.24432C138.136 3.76705 138.66 3.25568 139.619 3.25568C140.544 3.25568 141 3.74574 141 4.58523V4.61932C141 5.10511 140.505 5.0625 139.312 5.21591C138.098 5.37358 136.772 5.64205 136.772 7.14205C136.772 8.42045 137.761 9.15341 139.005 9.15341ZM139.159 8.25C138.358 8.25 137.778 7.89205 137.778 7.19318C137.778 6.42614 138.477 6.1875 139.261 6.08523C139.687 6.03409 140.829 5.91477 141 5.71023V6.63068C141 7.44886 140.352 8.25 139.159 8.25Z" fill="black" fill-opacity="0.6"/>
</svg>
